<?xml version="1.0" encoding="UTF-8" standalone="yes"?>
<svg version="1.2" width="100%" viewBox="0 0 1920 1920" xml:space="preserve" baseProfile="tiny-ps" xmlns="http://www.w3.org/2000/svg">
  <title>bimi-svg-tiny-12-ps</title>
  <path fill="#F07B14" stroke="none" d="&#xA;M1069.000000,1921.000000 &#xA;&#x9;C712.666687,1921.000000 356.833344,1921.000000 1.000000,1921.000000 &#xA;&#x9;C1.000000,1281.000000 1.000000,641.000000 1.000000,1.000000 &#xA;&#x9;C641.000000,1.000000 1281.000000,1.000000 1921.000000,1.000000 &#xA;&#x9;C1921.000000,641.000000 1921.000000,1281.000000 1921.000000,1921.000000 &#xA;&#x9;C1637.166626,1921.000000 1353.333374,1921.000000 1069.000000,1921.000000 &#xA;M567.171326,1050.310913 &#xA;&#x9;C579.481689,1083.511597 591.787842,1116.713745 604.105652,1149.911621 &#xA;&#x9;C606.875793,1157.377563 608.207642,1158.293701 616.214050,1158.294434 &#xA;&#x9;C661.372314,1158.298950 706.530518,1158.298584 751.688782,1158.293457 &#xA;&#x9;C760.638977,1158.292480 763.064941,1155.942383 763.065491,1147.174683 &#xA;&#x9;C763.073425,1018.865295 763.073730,890.555969 763.067139,762.246582 &#xA;&#x9;C763.066650,753.839478 760.403809,751.174866 752.044434,751.170898 &#xA;&#x9;C727.215759,751.159119 702.387024,751.165466 677.558350,751.166870 &#xA;&#x9;C666.669617,751.167480 664.706482,753.111206 664.706238,763.917358 &#xA;&#x9;C664.704285,856.233459 664.705322,948.549500 664.700806,1040.865601 &#xA;&#x9;C664.700745,1042.530884 665.035645,1044.337891 664.498657,1045.819458 &#xA;&#x9;C664.011047,1047.164795 662.609314,1049.007812 661.496216,1049.090210 &#xA;&#x9;C660.067139,1049.196167 658.335693,1047.980225 657.098755,1046.911865 &#xA;&#x9;C656.329773,1046.247803 656.241577,1044.800781 655.836792,1043.709229 &#xA;&#x9;C620.641235,948.782837 585.446594,853.856079 550.243164,758.932678 &#xA;&#x9;C547.843689,752.462524 546.009338,751.175537 539.193176,751.174072 &#xA;&#x9;C490.538147,751.163452 441.883118,751.160217 393.228088,751.172424 &#xA;&#x9;C384.549255,751.174561 382.001984,753.784058 382.001770,762.569092 &#xA;&#x9;C381.998718,890.711853 381.999176,1018.854553 382.002075,1146.997314 &#xA;&#x9;C382.002258,1155.846436 384.404694,1158.284912 393.209412,1158.290405 &#xA;&#x9;C418.204742,1158.305786 443.200104,1158.297607 468.195435,1158.293701 &#xA;&#x9;C478.370575,1158.292114 480.299561,1156.317871 480.299438,1145.954102 &#xA;&#x9;C480.298248,1044.972900 480.284943,943.991760 480.355011,843.010681 &#xA;&#x9;C480.357239,839.793152 478.694183,835.140381 483.505096,834.148804 &#xA;&#x9;C488.831268,833.051025 488.731812,838.379578 489.873535,841.450806 &#xA;&#x9;C515.650452,910.790894 541.307312,980.175537 567.171326,1050.310913 &#xA;M1053.500000,1164.841797 &#xA;&#x9;C1071.165283,1164.840942 1088.830688,1164.850220 1106.495972,1164.835205 &#xA;&#x9;C1116.495361,1164.826660 1118.162476,1163.178589 1118.165405,1153.371826 &#xA;&#x9;C1118.171509,1132.706787 1118.171265,1112.041748 1118.167358,1091.376709 &#xA;&#x9;C1118.165527,1081.775879 1116.088379,1079.703125 1106.395996,1079.701782 &#xA;&#x9;C1045.567505,1079.694092 984.738953,1079.699097 923.910400,1079.677246 &#xA;&#x9;C921.923767,1079.676514 919.906250,1079.607666 917.957214,1079.263794 &#xA;&#x9;C913.896912,1078.547241 912.086487,1075.715088 911.905823,1071.854980 &#xA;&#x9;C911.725708,1068.008179 911.837463,1064.147095 911.837341,1060.292358 &#xA;&#x9;C911.835388,992.131042 911.888062,923.969604 911.712830,855.808716 &#xA;&#x9;C911.701782,851.495544 914.736023,847.380310 912.194214,842.766602 &#xA;&#x9;C911.728699,841.921692 914.091858,838.593262 915.817200,837.698242 &#xA;&#x9;C918.026428,836.552063 920.911804,836.359802 923.506470,836.356995 &#xA;&#x9;C984.834900,836.289917 1046.163452,836.311035 1107.491943,836.294250 &#xA;&#x9;C1115.891113,836.291992 1118.157715,834.020813 1118.162842,825.760193 &#xA;&#x9;C1118.175659,804.928467 1118.170288,784.096802 1118.167847,763.265076 &#xA;&#x9;C1118.166748,753.526855 1115.848877,751.166321 1106.267578,751.166138 &#xA;&#x9;C1012.608276,751.164001 918.949036,751.163757 825.289734,751.166870 &#xA;&#x9;C815.554504,751.167175 813.295898,753.455688 813.295593,763.350220 &#xA;&#x9;C813.291626,893.173340 813.291382,1022.996460 813.295593,1152.819580 &#xA;&#x9;C813.295898,1162.421021 815.766296,1164.839966 825.517883,1164.840332 &#xA;&#x9;C901.178589,1164.842896 976.839294,1164.841675 1053.500000,1164.841797 &#xA;M1361.952515,907.545654 &#xA;&#x9;C1326.912231,857.228455 1291.847656,806.928162 1256.880127,756.560486 &#xA;&#x9;C1254.226685,752.738220 1251.019165,751.087646 1246.425171,751.100891 &#xA;&#x9;C1216.926392,751.185913 1187.427246,751.136292 1157.928223,751.154724 &#xA;&#x9;C1156.438477,751.155701 1154.894897,751.167419 1153.468750,751.533691 &#xA;&#x9;C1148.047241,752.926208 1145.143555,759.168640 1148.243530,763.787415 &#xA;&#x9;C1156.933472,776.734802 1165.953735,789.460815 1174.859863,802.262817 &#xA;&#x9;C1181.877441,812.350037 1189.049194,822.332947 1195.914307,832.522644 &#xA;&#x9;C1203.093018,843.177917 1209.772339,854.173157 1217.068237,864.744873 &#xA;&#x9;C1223.912109,874.661560 1231.412231,884.123352 1238.357910,893.972656 &#xA;&#x9;C1242.159180,899.362976 1238.752563,906.081055 1232.158813,906.778320 &#xA;&#x9;C1230.509155,906.952820 1228.828735,906.852234 1227.162476,906.852295 &#xA;&#x9;C1157.331421,906.854858 1087.500366,906.854065 1017.669373,906.854858 &#xA;&#x9;C1004.669800,906.855042 991.669922,906.803467 978.670837,906.886353 &#xA;&#x9;C972.144226,906.927917 969.222351,909.575989 969.195557,915.858887 &#xA;&#x9;C969.093384,939.857605 969.092407,963.857239 969.203308,987.855896 &#xA;&#x9;C969.235107,994.744385 971.728333,996.942566 978.662659,997.060669 &#xA;&#x9;C980.495422,997.091858 982.329102,997.071899 984.162354,997.071899 &#xA;&#x9;C1068.659546,997.072754 1153.156982,997.116211 1237.653809,996.958496 &#xA;&#x9;C1242.353638,996.949707 1245.481079,998.934692 1247.484863,1002.359436 &#xA;&#x9;C1249.408203,1005.647095 1247.609863,1008.967285 1245.501343,1011.974915 &#xA;&#x9;C1237.819336,1022.933716 1230.258911,1033.977661 1222.645752,1044.984741 &#xA;&#x9;C1211.623535,1060.920654 1200.613281,1076.865234 1189.564819,1092.783081 &#xA;&#x9;C1176.410278,1111.734985 1163.301514,1130.719849 1149.980469,1149.554321 &#xA;&#x9;C1147.238770,1153.430908 1145.501465,1158.111694 1147.639404,1161.572144 &#xA;&#x9;C1149.074585,1163.895386 1154.343384,1164.695557 1157.908691,1164.724365 &#xA;&#x9;C1187.072388,1164.960938 1216.239380,1164.777710 1245.404297,1164.927368 &#xA;&#x9;C1250.597900,1164.953979 1254.150146,1163.168213 1257.117065,1158.895508 &#xA;&#x9;C1301.971313,1094.299072 1346.926758,1029.772827 1391.837036,965.215149 &#xA;&#x9;C1396.281616,958.826111 1396.190308,956.728516 1391.771851,950.394043 &#xA;&#x9;C1381.953735,936.318115 1372.151123,922.231140 1361.952515,907.545654 &#xA;M1423.917114,915.892456 &#xA;&#x9;C1428.926025,918.264465 1432.477295,916.384705 1435.409790,912.153748 &#xA;&#x9;C1446.311157,896.424683 1457.281494,880.743469 1468.215698,865.037231 &#xA;&#x9;C1491.322510,831.845703 1514.412842,798.642639 1537.542480,765.466919 &#xA;&#x9;C1539.666382,762.420532 1540.980103,759.364746 1539.086426,755.744263 &#xA;&#x9;C1537.130371,752.004456 1533.810669,751.045898 1529.881348,751.054260 &#xA;&#x9;C1500.225098,751.117310 1470.568726,751.183533 1440.912720,751.112061 &#xA;&#x9;C1436.136963,751.100525 1432.806274,752.747864 1430.050781,756.751343 &#xA;&#x9;C1413.065918,781.426941 1395.874146,805.959900 1378.831055,830.595581 &#xA;&#x9;C1373.435059,838.395508 1373.525146,844.952332 1378.921631,852.766846 &#xA;&#x9;C1388.001587,865.915527 1397.094849,879.056030 1406.297363,892.119019 &#xA;&#x9;C1411.843262,899.991394 1417.606689,907.710571 1423.917114,915.892456 &#xA;M1524.445801,1170.002075 &#xA;&#x9;C1526.444458,1170.001465 1528.445679,1169.936523 1530.441284,1170.014282 &#xA;&#x9;C1534.293701,1170.164307 1537.253662,1168.757690 1539.047607,1165.252563 &#xA;&#x9;C1540.799927,1161.828735 1539.658569,1158.903442 1537.619263,1155.975464 &#xA;&#x9;C1503.570435,1107.089722 1469.571899,1058.169067 1435.521362,1009.284668 &#xA;&#x9;C1430.733398,1002.411072 1424.781616,1002.465576 1419.997803,1009.315613 &#xA;&#x9;C1406.852661,1028.138794 1393.738525,1046.983521 1380.624756,1065.828491 &#xA;&#x9;C1372.739258,1077.160034 1372.850098,1082.148682 1380.601562,1093.352295 &#xA;&#x9;C1397.251465,1117.416870 1413.741943,1141.591675 1430.435181,1165.625977 &#xA;&#x9;C1432.231689,1168.212524 1434.502808,1170.104858 1438.519043,1170.070679 &#xA;&#x9;C1466.831299,1169.829590 1495.147095,1169.978149 1524.445801,1170.002075 &#xA;M1639.025391,762.523071 &#xA;&#x9;C1639.025391,758.762146 1639.025391,755.001282 1639.025391,751.680298 &#xA;&#x9;C1632.433594,749.500488 1629.660156,752.133301 1627.739014,757.621765 &#xA;&#x9;C1625.304810,764.576111 1621.936035,771.203430 1618.676758,778.641846 &#xA;&#x9;C1615.249878,770.797607 1612.198120,763.802185 1609.137939,756.810425 &#xA;&#x9;C1606.276001,750.271362 1606.272095,750.273071 1598.656616,751.612488 &#xA;&#x9;C1598.656616,762.615845 1598.656616,773.639893 1598.656616,784.626587 &#xA;&#x9;C1600.806519,784.626587 1602.551514,784.626587 1604.931885,784.626587 &#xA;&#x9;C1604.931885,777.678711 1604.931885,771.042480 1604.931885,764.406311 &#xA;&#x9;C1608.560425,770.120300 1611.001099,776.061401 1613.926392,781.753418 &#xA;&#x9;C1614.681763,783.223206 1616.831909,784.300354 1618.567017,784.867615 &#xA;&#x9;C1621.254883,785.746521 1622.678345,784.119202 1623.723145,781.613586 &#xA;&#x9;C1626.276489,775.490356 1629.112915,769.485168 1631.835449,763.432556 &#xA;&#x9;C1632.231812,763.555542 1632.628052,763.678589 1633.024414,763.801636 &#xA;&#x9;C1633.024414,770.710205 1633.024414,777.618835 1633.024414,784.667053 &#xA;&#x9;C1635.171997,784.667053 1636.892334,784.667053 1639.025391,784.667053 &#xA;&#x9;C1639.025391,777.429871 1639.025391,770.472473 1639.025391,762.523071 &#xA;M1584.074707,770.506104 &#xA;&#x9;C1584.074707,766.091431 1584.074707,761.676697 1584.074707,756.909058 &#xA;&#x9;C1587.827637,756.909058 1590.765747,756.909058 1593.715820,756.909058 &#xA;&#x9;C1593.715820,754.798096 1593.715820,753.093140 1593.715820,751.422852 &#xA;&#x9;C1584.975342,751.422852 1576.588745,751.422852 1568.227539,751.422852 &#xA;&#x9;C1568.227539,753.389221 1568.227539,754.998596 1568.227539,757.193848 &#xA;&#x9;C1571.490112,757.193848 1574.538940,757.193848 1578.022339,757.193848 &#xA;&#x9;C1578.022339,766.688171 1578.022339,775.599060 1578.022339,784.644531 &#xA;&#x9;C1580.199707,784.644531 1581.922241,784.644531 1584.074707,784.644531 &#xA;&#x9;C1584.074707,780.081848 1584.074707,775.789490 1584.074707,770.506104 &#xA;z"/>
  <path fill="#FFFFFF" stroke="none" d="&#xA;M567.079041,1049.931396 &#xA;&#x9;C541.307312,980.175537 515.650452,910.790894 489.873535,841.450806 &#xA;&#x9;C488.731812,838.379578 488.831268,833.051025 483.505096,834.148804 &#xA;&#x9;C478.694183,835.140381 480.357239,839.793152 480.355011,843.010681 &#xA;&#x9;C480.284943,943.991760 480.298248,1044.972900 480.299438,1145.954102 &#xA;&#x9;C480.299561,1156.317871 478.370575,1158.292114 468.195435,1158.293701 &#xA;&#x9;C443.200104,1158.297607 418.204742,1158.305786 393.209412,1158.290405 &#xA;&#x9;C384.404694,1158.284912 382.002258,1155.846436 382.002075,1146.997314 &#xA;&#x9;C381.999176,1018.854553 381.998718,890.711853 382.001770,762.569092 &#xA;&#x9;C382.001984,753.784058 384.549255,751.174561 393.228088,751.172424 &#xA;&#x9;C441.883118,751.160217 490.538147,751.163452 539.193176,751.174072 &#xA;&#x9;C546.009338,751.175537 547.843689,752.462524 550.243164,758.932678 &#xA;&#x9;C585.446594,853.856079 620.641235,948.782837 655.836792,1043.709229 &#xA;&#x9;C656.241577,1044.800781 656.329773,1046.247803 657.098755,1046.911865 &#xA;&#x9;C658.335693,1047.980225 660.067139,1049.196167 661.496216,1049.090210 &#xA;&#x9;C662.609314,1049.007812 664.011047,1047.164795 664.498657,1045.819458 &#xA;&#x9;C665.035645,1044.337891 664.700745,1042.530884 664.700806,1040.865601 &#xA;&#x9;C664.705322,948.549500 664.704285,856.233459 664.706238,763.917358 &#xA;&#x9;C664.706482,753.111206 666.669617,751.167480 677.558350,751.166870 &#xA;&#x9;C702.387024,751.165466 727.215759,751.159119 752.044434,751.170898 &#xA;&#x9;C760.403809,751.174866 763.066650,753.839478 763.067139,762.246582 &#xA;&#x9;C763.073730,890.555969 763.073425,1018.865295 763.065491,1147.174683 &#xA;&#x9;C763.064941,1155.942383 760.638977,1158.292480 751.688782,1158.293457 &#xA;&#x9;C706.530518,1158.298584 661.372314,1158.298950 616.214050,1158.294434 &#xA;&#x9;C608.207642,1158.293701 606.875793,1157.377563 604.105652,1149.911621 &#xA;&#x9;C591.787842,1116.713745 579.481689,1083.511597 567.079041,1049.931396 &#xA;z"/>
  <path fill="#FFFEFE" stroke="none" d="&#xA;M1053.000000,1164.841797 &#xA;&#x9;C976.839294,1164.841675 901.178589,1164.842896 825.517883,1164.840332 &#xA;&#x9;C815.766296,1164.839966 813.295898,1162.421021 813.295593,1152.819580 &#xA;&#x9;C813.291382,1022.996460 813.291626,893.173340 813.295593,763.350220 &#xA;&#x9;C813.295898,753.455688 815.554504,751.167175 825.289734,751.166870 &#xA;&#x9;C918.949036,751.163757 1012.608276,751.164001 1106.267578,751.166138 &#xA;&#x9;C1115.848877,751.166321 1118.166748,753.526855 1118.167847,763.265076 &#xA;&#x9;C1118.170288,784.096802 1118.175659,804.928467 1118.162842,825.760193 &#xA;&#x9;C1118.157715,834.020813 1115.891113,836.291992 1107.491943,836.294250 &#xA;&#x9;C1046.163452,836.311035 984.834900,836.289917 923.506470,836.356995 &#xA;&#x9;C920.911804,836.359802 918.026428,836.552063 915.817200,837.698242 &#xA;&#x9;C914.091858,838.593262 911.728699,841.921692 912.194214,842.766602 &#xA;&#x9;C914.736023,847.380310 911.701782,851.495544 911.712830,855.808716 &#xA;&#x9;C911.888062,923.969604 911.835388,992.131042 911.837341,1060.292358 &#xA;&#x9;C911.837463,1064.147095 911.725708,1068.008179 911.905823,1071.854980 &#xA;&#x9;C912.086487,1075.715088 913.896912,1078.547241 917.957214,1079.263794 &#xA;&#x9;C919.906250,1079.607666 921.923767,1079.676514 923.910400,1079.677246 &#xA;&#x9;C984.738953,1079.699097 1045.567505,1079.694092 1106.395996,1079.701782 &#xA;&#x9;C1116.088379,1079.703125 1118.165527,1081.775879 1118.167358,1091.376709 &#xA;&#x9;C1118.171265,1112.041748 1118.171509,1132.706787 1118.165405,1153.371826 &#xA;&#x9;C1118.162476,1163.178589 1116.495361,1164.826660 1106.495972,1164.835205 &#xA;&#x9;C1088.830688,1164.850220 1071.165283,1164.840942 1053.000000,1164.841797 &#xA;z"/>
  <path fill="#F9D479" stroke="none" d="&#xA;M1362.147461,907.847168 &#xA;&#x9;C1372.151123,922.231140 1381.953735,936.318115 1391.771851,950.394043 &#xA;&#x9;C1396.190308,956.728516 1396.281616,958.826111 1391.837036,965.215149 &#xA;&#x9;C1346.926758,1029.772827 1301.971313,1094.299072 1257.117065,1158.895508 &#xA;&#x9;C1254.150146,1163.168213 1250.597900,1164.953979 1245.404297,1164.927368 &#xA;&#x9;C1216.239380,1164.777710 1187.072388,1164.960938 1157.908691,1164.724365 &#xA;&#x9;C1154.343384,1164.695557 1149.074585,1163.895386 1147.639404,1161.572144 &#xA;&#x9;C1145.501465,1158.111694 1147.238770,1153.430908 1149.980469,1149.554321 &#xA;&#x9;C1163.301514,1130.719849 1176.410278,1111.734985 1189.564819,1092.783081 &#xA;&#x9;C1200.613281,1076.865234 1211.623535,1060.920654 1222.645752,1044.984741 &#xA;&#x9;C1230.258911,1033.977661 1237.819336,1022.933716 1245.501343,1011.974915 &#xA;&#x9;C1247.609863,1008.967285 1249.408203,1005.647095 1247.484863,1002.359436 &#xA;&#x9;C1245.481079,998.934692 1242.353638,996.949707 1237.653809,996.958496 &#xA;&#x9;C1153.156982,997.116211 1068.659546,997.072754 984.162354,997.071899 &#xA;&#x9;C982.329102,997.071899 980.495422,997.091858 978.662659,997.060669 &#xA;&#x9;C971.728333,996.942566 969.235107,994.744385 969.203308,987.855896 &#xA;&#x9;C969.092407,963.857239 969.093384,939.857605 969.195557,915.858887 &#xA;&#x9;C969.222351,909.575989 972.144226,906.927917 978.670837,906.886353 &#xA;&#x9;C991.669922,906.803467 1004.669800,906.855042 1017.669373,906.854858 &#xA;&#x9;C1087.500366,906.854065 1157.331421,906.854858 1227.162476,906.852295 &#xA;&#x9;C1228.828735,906.852234 1230.509155,906.952820 1232.158813,906.778320 &#xA;&#x9;C1238.752563,906.081055 1242.159180,899.362976 1238.357910,893.972656 &#xA;&#x9;C1231.412231,884.123352 1223.912109,874.661560 1217.068237,864.744873 &#xA;&#x9;C1209.772339,854.173157 1203.093018,843.177917 1195.914307,832.522644 &#xA;&#x9;C1189.049194,822.332947 1181.877441,812.350037 1174.859863,802.262817 &#xA;&#x9;C1165.953735,789.460815 1156.933472,776.734802 1148.243530,763.787415 &#xA;&#x9;C1145.143555,759.168640 1148.047241,752.926208 1153.468750,751.533691 &#xA;&#x9;C1154.894897,751.167419 1156.438477,751.155701 1157.928223,751.154724 &#xA;&#x9;C1187.427246,751.136292 1216.926392,751.185913 1246.425171,751.100891 &#xA;&#x9;C1251.019165,751.087646 1254.226685,752.738220 1256.880127,756.560486 &#xA;&#x9;C1291.847656,806.928162 1326.912231,857.228455 1362.147461,907.847168 &#xA;z"/>
  <path fill="#FFFEFE" stroke="none" d="&#xA;M1423.594727,915.695557 &#xA;&#x9;C1417.606689,907.710571 1411.843262,899.991394 1406.297363,892.119019 &#xA;&#x9;C1397.094849,879.056030 1388.001587,865.915527 1378.921631,852.766846 &#xA;&#x9;C1373.525146,844.952332 1373.435059,838.395508 1378.831055,830.595581 &#xA;&#x9;C1395.874146,805.959900 1413.065918,781.426941 1430.050781,756.751343 &#xA;&#x9;C1432.806274,752.747864 1436.136963,751.100525 1440.912720,751.112061 &#xA;&#x9;C1470.568726,751.183533 1500.225098,751.117310 1529.881348,751.054260 &#xA;&#x9;C1533.810669,751.045898 1537.130371,752.004456 1539.086426,755.744263 &#xA;&#x9;C1540.980103,759.364746 1539.666382,762.420532 1537.542480,765.466919 &#xA;&#x9;C1514.412842,798.642639 1491.322510,831.845703 1468.215698,865.037231 &#xA;&#x9;C1457.281494,880.743469 1446.311157,896.424683 1435.409790,912.153748 &#xA;&#x9;C1432.477295,916.384705 1428.926025,918.264465 1423.594727,915.695557 &#xA;z"/>
  <path fill="#FFFEFE" stroke="none" d="&#xA;M1523.953735,1170.002197 &#xA;&#x9;C1495.147095,1169.978149 1466.831299,1169.829590 1438.519043,1170.070679 &#xA;&#x9;C1434.502808,1170.104858 1432.231689,1168.212524 1430.435181,1165.625977 &#xA;&#x9;C1413.741943,1141.591675 1397.251465,1117.416870 1380.601562,1093.352295 &#xA;&#x9;C1372.850098,1082.148682 1372.739258,1077.160034 1380.624756,1065.828491 &#xA;&#x9;C1393.738525,1046.983521 1406.852661,1028.138794 1419.997803,1009.315613 &#xA;&#x9;C1424.781616,1002.465576 1430.733398,1002.411072 1435.521362,1009.284668 &#xA;&#x9;C1469.571899,1058.169067 1503.570435,1107.089722 1537.619263,1155.975464 &#xA;&#x9;C1539.658569,1158.903442 1540.799927,1161.828735 1539.047607,1165.252563 &#xA;&#x9;C1537.253662,1168.757690 1534.293701,1170.164307 1530.441284,1170.014282 &#xA;&#x9;C1528.445679,1169.936523 1526.444458,1170.001465 1523.953735,1170.002197 &#xA;z"/>
  <path fill="#FEF8F3" stroke="none" d="&#xA;M1639.025391,763.019043 &#xA;&#x9;C1639.025391,770.472473 1639.025391,777.429871 1639.025391,784.667053 &#xA;&#x9;C1636.892334,784.667053 1635.171997,784.667053 1633.024414,784.667053 &#xA;&#x9;C1633.024414,777.618835 1633.024414,770.710205 1633.024414,763.801636 &#xA;&#x9;C1632.628052,763.678589 1632.231812,763.555542 1631.835449,763.432556 &#xA;&#x9;C1629.112915,769.485168 1626.276489,775.490356 1623.723145,781.613586 &#xA;&#x9;C1622.678345,784.119202 1621.254883,785.746521 1618.567017,784.867615 &#xA;&#x9;C1616.831909,784.300354 1614.681763,783.223206 1613.926392,781.753418 &#xA;&#x9;C1611.001099,776.061401 1608.560425,770.120300 1604.931885,764.406311 &#xA;&#x9;C1604.931885,771.042480 1604.931885,777.678711 1604.931885,784.626587 &#xA;&#x9;C1602.551514,784.626587 1600.806519,784.626587 1598.656616,784.626587 &#xA;&#x9;C1598.656616,773.639893 1598.656616,762.615845 1598.656616,751.612488 &#xA;&#x9;C1606.272095,750.273071 1606.276001,750.271362 1609.137939,756.810425 &#xA;&#x9;C1612.198120,763.802185 1615.249878,770.797607 1618.676758,778.641846 &#xA;&#x9;C1621.936035,771.203430 1625.304810,764.576111 1627.739014,757.621765 &#xA;&#x9;C1629.660156,752.133301 1632.433594,749.500488 1639.025391,751.680298 &#xA;&#x9;C1639.025391,755.001282 1639.025391,758.762146 1639.025391,763.019043 &#xA;z"/>
  <path fill="#FFFEFE" stroke="none" d="&#xA;M1584.074707,771.001587 &#xA;&#x9;C1584.074707,775.789490 1584.074707,780.081848 1584.074707,784.644531 &#xA;&#x9;C1581.922241,784.644531 1580.199707,784.644531 1578.022339,784.644531 &#xA;&#x9;C1578.022339,775.599060 1578.022339,766.688171 1578.022339,757.193848 &#xA;&#x9;C1574.538940,757.193848 1571.490112,757.193848 1568.227539,757.193848 &#xA;&#x9;C1568.227539,754.998596 1568.227539,753.389221 1568.227539,751.422852 &#xA;&#x9;C1576.588745,751.422852 1584.975342,751.422852 1593.715820,751.422852 &#xA;&#x9;C1593.715820,753.093140 1593.715820,754.798096 1593.715820,756.909058 &#xA;&#x9;C1590.765747,756.909058 1587.827637,756.909058 1584.074707,756.909058 &#xA;&#x9;C1584.074707,761.676697 1584.074707,766.091431 1584.074707,771.001587 &#xA;z"/>
</svg>